<svg xmlns="http://www.w3.org/2000/svg" viewBox="0 0 512 512">
    <circle cx="256" cy="256" r="256" fill="#50206c"/>
    <path d="M511.99 263.131L385.782 136.924c-12.226-15.774-31.339-25.957-52.795-25.957-29.584 0-54.722 19.344-63.469 46.041l-22.983-22.983.121-.121-23.61-23.612-43.847 43.847-43.846-43.847-23.611 23.611 43.847 43.847-43.847 43.847.029.028-.121.121 48.504 48.504c-27.571 8.221-47.736 33.793-47.736 64 0 18.583 7.637 35.411 19.928 47.53l-.175.175L262.14 511.924c136.218-3.159 246.127-112.713 249.85-248.793z"
          fill="#3d1952"/>
    <path d="M332.895 244.532c-36.824 0-66.783-29.959-66.783-66.783s29.959-66.783 66.783-66.783 66.783 29.959 66.783 66.783-29.961 66.783-66.783 66.783zm0-100.174c-18.412 0-33.391 14.979-33.391 33.391s14.979 33.391 33.391 33.391 33.391-14.979 33.391-33.391-14.981-33.391-33.391-33.391z"
          fill="#fff"/>
    <path d="M332.895 110.967v33.391c18.412 0 33.391 14.979 33.391 33.391s-14.979 33.391-33.391 33.391v33.391c36.824 0 66.783-29.959 66.783-66.783s-29.961-66.781-66.783-66.781z"
          fill="#e0e0e2"/>
    <path fill="#fff"
          d="M246.564 133.902l-23.611-23.611-43.848 43.848-43.846-43.848-23.611 23.611 43.848 43.848-43.848 43.846 23.611 23.611 43.846-43.846 43.848 43.846 23.611-23.611-43.848-43.846z"/>
    <path fill="#e0e0e2"
          d="M246.564 133.902l-23.611-23.611-43.848 43.848v47.222l43.848 43.846 23.611-23.611-43.848-43.846z"/>
    <path d="M179.105 401.033c-36.824 0-66.783-29.959-66.783-66.783s29.959-66.783 66.783-66.783 66.783 29.959 66.783 66.783-29.959 66.783-66.783 66.783zm0-100.174c-18.412 0-33.391 14.979-33.391 33.391s14.979 33.391 33.391 33.391 33.391-14.979 33.391-33.391c.001-18.412-14.979-33.391-33.391-33.391z"
          fill="#fff"/>
    <path d="M179.105 267.468v33.391c18.412 0 33.391 14.979 33.391 33.391s-14.979 33.391-33.391 33.391v33.391c36.824 0 66.783-29.959 66.783-66.783s-29.959-66.781-66.783-66.781z"
          fill="#e0e0e2"/>
    <path fill="#fff"
          d="M400.352 290.404l-23.611-23.611-43.846 43.846-43.848-43.846-23.611 23.611 43.848 43.846-43.848 43.848 23.611 23.61 43.848-43.847 43.846 43.847 23.611-23.61-43.848-43.848z"/>
    <path fill="#e0e0e2"
          d="M400.352 290.404l-23.611-23.611-43.846 43.846v47.222l43.846 43.847 23.611-23.61-43.848-43.848z"/>
</svg>
